<?xml version="1.0" encoding="UTF-8"?>
<svg version="1.1" xmlns="http://www.w3.org/2000/svg" width="1250" height="325">
<path d="M0 0 C0.84242752 -0.00807175 1.68485504 -0.01614349 2.55281067 -0.02445984 C4.33735098 -0.03828853 6.1219176 -0.04901612 7.90649414 -0.05688477 C9.72297976 -0.06838459 11.53943211 -0.08880471 13.35571289 -0.1184082 C15.98737436 -0.1612988 18.6180314 -0.17728505 21.25 -0.1875 C22.05237595 -0.20500809 22.85475189 -0.22251617 23.68144226 -0.24055481 C30.72316759 -0.21381833 35.76493438 1.98443271 41.14453125 6.48828125 C46.79499977 13.20775733 49.44169602 19.48692373 51.26953125 28.05078125 C51.48544922 28.99115234 51.70136719 29.93152344 51.92382812 30.90039062 C53.45703125 37.70975942 53.45703125 37.70975942 53.45703125 41.23828125 C106.91703125 41.23828125 160.37703125 41.23828125 215.45703125 41.23828125 C216.11703125 39.91828125 216.77703125 38.59828125 217.45703125 37.23828125 C221.13127065 35.19703714 224.30010145 34.72926944 228.45703125 35.23828125 C232.11485305 37.27822033 234.12649299 38.74247387 236.45703125 42.23828125 C237.13904885 46.00732586 237.28801832 49.69456296 235.44140625 53.125 C233.30060477 55.78810545 231.71644517 57.15180994 228.45703125 58.23828125 C223.48775691 58.60637565 220.42020318 58.38550602 216.45703125 55.23828125 C216.12703125 54.24828125 215.79703125 53.25828125 215.45703125 52.23828125 C214.60096692 52.24289021 213.74490259 52.24749918 212.86289692 52.25224781 C192.039926 52.36263471 171.21700545 52.44539291 150.3938036 52.49734211 C140.32387095 52.52313166 130.25413352 52.55829658 120.18432617 52.61547852 C111.40820855 52.66529044 102.63223229 52.6975668 93.85597724 52.70872372 C89.20827371 52.71524624 84.56097464 52.73059149 79.91340065 52.76693153 C75.53931994 52.80085616 71.16581049 52.81134144 66.79161072 52.80381966 C65.18595971 52.8051958 63.58028971 52.8151497 61.97475243 52.83430862 C59.78188962 52.8591937 57.59118247 52.8532059 55.39826965 52.83955383 C54.17136319 52.8441628 52.94445673 52.84877176 51.68037128 52.85352039 C47.55516371 52.06614173 46.09277624 50.42706149 43.45703125 47.23828125 C39.96799515 41.0557992 38.96380735 33.27026616 37.52734375 26.39648438 C36.28164619 20.99163212 35.04941912 17.72659947 30.45703125 14.23828125 C24.29774182 11.21334426 17.79657015 11.90925925 11.08203125 11.92578125 C9.78007812 11.90966797 8.478125 11.89355469 7.13671875 11.87695312 C-2.20223147 11.69886464 -2.20223147 11.69886464 -10.54296875 15.23828125 C-15.53085821 21.72167309 -16.50792294 29.7582353 -18.16601562 37.609375 C-19.50939275 43.48802256 -20.4488365 47.51387036 -25.54296875 51.23828125 C-27.7890625 52.49609375 -27.7890625 52.49609375 -29.98046875 53.36328125 C-32.70487373 54.46291753 -35.01069174 55.52086389 -37.54296875 57.05078125 C-41.77690706 58.72671517 -45.14893284 58.2583253 -49.54296875 57.23828125 C-52.64647315 55.88809477 -55.44383537 54.18198665 -58.29296875 52.36328125 C-59.02128906 51.91597656 -59.74960938 51.46867187 -60.5 51.0078125 C-62.52232923 49.76358453 -64.53458501 48.50486302 -66.54296875 47.23828125 C-70.70198932 44.62006774 -73.53557909 43.41094986 -78.54296875 43.23828125 C-85.99728896 45.35459016 -90.55479628 50.69310271 -95.85546875 56.11328125 C-96.76103516 57.01175781 -97.66660156 57.91023438 -98.59960938 58.8359375 C-105.0491848 65.03849983 -105.0491848 65.03849983 -107.74804688 73.31958008 C-107.15566854 80.35074483 -103.92695704 85.17401515 -100.04296875 90.92578125 C-98.8360227 92.73620033 -97.63777673 94.55245619 -96.44921875 96.375 C-95.91619141 97.16608154 -95.38316406 97.95716309 -94.83398438 98.7722168 C-93.03809803 102.20267215 -92.2633133 105.52264219 -92.890625 109.37109375 C-99.40966014 127.53889659 -99.40966014 127.53889659 -106.54296875 131.23828125 C-109.32617188 132.06616211 -109.32617188 132.06616211 -112.32421875 132.703125 C-113.41347656 132.94611328 -114.50273438 133.18910156 -115.625 133.43945312 C-117.9028447 133.93016595 -120.18149609 134.41714905 -122.4609375 134.90039062 C-123.55019531 135.14466797 -124.63945313 135.38894531 -125.76171875 135.640625 C-126.75107422 135.85195068 -127.74042969 136.06327637 -128.75976562 136.28100586 C-132.69090409 137.63311059 -135.38065224 139.64575383 -137.83447266 143.0078125 C-138.87615709 146.28721601 -138.86823236 149.51825101 -138.87890625 152.92578125 C-138.88556305 153.66530029 -138.89221985 154.40481934 -138.89907837 155.16674805 C-138.90918094 156.72670003 -138.91389613 158.28669502 -138.91357422 159.84667969 C-138.91795453 162.23054061 -138.95431458 164.6125593 -138.9921875 166.99609375 C-138.99805485 168.5143166 -139.00202479 170.03254822 -139.00390625 171.55078125 C-139.01827728 172.26129639 -139.03264832 172.97181152 -139.04745483 173.70385742 C-139.01722192 176.98346059 -138.76896125 178.91760869 -136.8605957 181.62548828 C-134.19815841 183.47822828 -132.17620179 184.10045649 -129 184.73046875 C-127.92556641 184.96121094 -126.85113281 185.19195312 -125.74414062 185.4296875 C-123.50530484 185.88132584 -121.26572882 186.32931181 -119.02539062 186.7734375 C-110.96408102 188.51356516 -103.81002959 190.85665807 -98.7109375 197.6953125 C-98.38738281 198.47261719 -98.06382813 199.24992188 -97.73046875 200.05078125 C-97.35792969 200.911875 -96.98539063 201.77296875 -96.6015625 202.66015625 C-96.25222656 203.5109375 -95.90289062 204.36171875 -95.54296875 205.23828125 C-95.16269531 206.0065625 -94.78242187 206.77484375 -94.390625 207.56640625 C-91.1902928 214.08096147 -89.37329192 220.31093732 -91.65234375 227.421875 C-93.84380878 233.66906104 -97.65457087 238.8341867 -101.42382812 244.22070312 C-105.45500968 250.18554679 -105.45500968 250.18554679 -106.36352539 257.13305664 C-104.34580423 262.3097331 -99.64037502 265.96621496 -95.66796875 269.67578125 C-94.26224609 271.03993164 -94.26224609 271.03993164 -92.828125 272.43164062 C-87.60880012 278.05332152 -87.60880012 278.05332152 -80.72851562 280.47412109 C-77.15781431 280.2097666 -75.54121611 279.41274715 -72.57421875 277.46484375 C-71.22263672 276.59859375 -71.22263672 276.59859375 -69.84375 275.71484375 C-68.45736328 274.79832031 -68.45736328 274.79832031 -67.04296875 273.86328125 C-52.01853256 264.05653629 -52.01853256 264.05653629 -42.54296875 265.23828125 C-39.39488817 266.06290999 -36.42925358 267.1994317 -33.41796875 268.42578125 C-32.64582031 268.71775391 -31.87367187 269.00972656 -31.078125 269.31054688 C-23.92177042 272.14504848 -18.66468168 275.70719256 -15.41455078 282.86083984 C-13.27944136 288.6848442 -12.09898094 294.79290595 -10.74414062 300.83398438 C-10.50115234 301.87103516 -10.25816406 302.90808594 -10.0078125 303.9765625 C-9.69251587 305.384823 -9.69251587 305.384823 -9.37084961 306.8215332 C-8.21889797 310.184308 -6.68339582 311.66806771 -3.54296875 313.23828125 C0.56193965 313.44930773 4.66841098 313.42407773 8.77832031 313.42358398 C10.81727117 313.42576546 12.8556765 313.44391192 14.89453125 313.46289062 C16.18101562 313.46482422 17.4675 313.46675781 18.79296875 313.46875 C19.9742334 313.47285889 21.15549805 313.47696777 22.37255859 313.48120117 C25.35063943 313.24666022 27.01722983 312.9206421 29.45703125 311.23828125 C30.68588921 308.70265125 30.68588921 308.70265125 31.45703125 305.61328125 C31.78703125 304.45441406 32.11703125 303.29554688 32.45703125 302.1015625 C33.15253745 299.41462643 33.82196712 296.73213309 34.45703125 294.03125 C34.70839844 292.97574951 34.70839844 292.97574951 34.96484375 291.89892578 C35.28494785 290.53435501 35.59292598 289.16686322 35.88671875 287.79638672 C37.47007611 280.93690763 40.5906875 276.1328135 46.45703125 272.23828125 C49.3352459 270.82109291 52.27663322 269.6399662 55.26953125 268.48828125 C56.03845703 268.17246094 56.80738281 267.85664063 57.59960938 267.53125 C64.50403715 264.83939715 69.91857591 263.97046449 76.8828125 266.87890625 C82.52689885 269.62526708 87.73972561 273.07125586 92.97070312 276.5234375 C98.73362577 280.21035102 98.73362577 280.21035102 105.45703125 280.23828125 C107.41287174 279.22074283 107.41287174 279.22074283 109.01953125 277.55078125 C109.68210937 276.92429687 110.3446875 276.2978125 111.02734375 275.65234375 C111.82914062 274.85570312 112.6309375 274.0590625 113.45703125 273.23828125 C114.57932301 272.14182055 115.70172729 271.04547501 116.82421875 269.94921875 C124.08981338 263.62878756 124.08981338 263.62878756 127.9296875 255.27734375 C127.84850214 249.57665554 123.97710488 245.15602133 120.89453125 240.61328125 C119.65054413 238.77600797 118.41943887 236.92992822 117.203125 235.07421875 C116.65325928 234.2651709 116.10339355 233.45612305 115.53686523 232.62255859 C114.19785499 229.66601914 114.4159519 228.27377894 115.45703125 225.23828125 C118.06223779 222.63307471 119.86632187 222.99990939 123.41419983 222.98152161 C124.66565041 222.99006416 124.66565041 222.99006416 125.94238281 222.9987793 C126.82061203 222.99676514 127.69884125 222.99475098 128.60368347 222.99267578 C130.51509536 222.98912435 132.42651899 222.98990464 134.33792877 222.99445152 C137.36431973 223.00003072 140.39032539 222.99090825 143.41668701 222.97724915 C152.02276248 222.9400665 160.62870982 222.9215733 169.23486328 222.93286133 C174.49581924 222.93871643 179.75623614 222.92042814 185.01708221 222.88697243 C187.0216903 222.87902033 189.02635717 222.88029281 191.03095245 222.89099693 C193.83926294 222.90534262 196.64588404 222.88903276 199.45410156 222.8659668 C200.28030502 222.87773453 201.10650848 222.88950226 201.95774841 222.90162659 C207.85482751 222.80681118 210.24182469 221.33149236 214.45703125 217.23828125 C218.23087881 216.20098499 221.65000555 216.91547097 225.26953125 218.36328125 C228.09910474 220.78862995 229.2363575 222.71189043 230.45703125 226.23828125 C230.25073157 230.22674175 229.89382545 233.98922231 227.45703125 237.23828125 C223.07042076 240.34100574 219.73425077 240.4660032 214.60546875 239.953125 C212.45703125 239.23828125 212.45703125 239.23828125 210.78717041 237.22198486 C207.64056082 234.5432003 204.96865609 234.7027543 201.02636719 234.78417969 C200.28451172 234.78359558 199.54265625 234.78301147 198.77832031 234.78240967 C196.33220223 234.785191 193.88731078 234.81628339 191.44140625 234.84765625 C189.74319118 234.85511851 188.04496749 234.86081152 186.34674072 234.86480713 C181.88147115 234.88006474 177.41672372 234.91934736 172.95166016 234.96362305 C168.39362654 235.00457318 163.83550838 235.02281758 159.27734375 235.04296875 C150.33701044 235.08584172 141.3970643 235.1540944 132.45703125 235.23828125 C132.95074219 236.06972656 133.44445312 236.90117187 133.953125 237.7578125 C134.59378906 238.84449219 135.23445313 239.93117187 135.89453125 241.05078125 C136.53261719 242.12972656 137.17070312 243.20867187 137.828125 244.3203125 C139.86990479 247.97788925 140.64617118 250.78997264 140.76953125 254.92578125 C140.80691406 255.73402344 140.84429687 256.54226563 140.8828125 257.375 C139.47181842 266.86361155 132.57709211 272.66308222 126.01953125 279.05078125 C125.06755147 279.99984134 124.11637335 280.94970626 123.16601562 281.90039062 C116.7397361 288.24503781 112.02530542 292.54224698 102.95703125 293.67578125 C95.48824667 293.5379808 88.84443576 288.87384042 82.8203125 284.8359375 C82.20816895 284.42722412 81.59602539 284.01851074 80.96533203 283.59741211 C79.77901893 282.79333425 78.60341681 281.97314844 77.44091797 281.13500977 C73.27615924 278.2770222 70.45139951 277.6208759 65.45703125 278.23828125 C61.74174581 279.42831171 61.74174581 279.42831171 58.14453125 281.11328125 C57.21543945 281.51740234 57.21543945 281.51740234 56.26757812 281.9296875 C53.57473116 283.12845759 51.55785049 284.13746201 49.45703125 286.23828125 C48.8906948 288.23203346 48.41087838 290.25073215 47.9765625 292.27734375 C47.69876953 293.49808594 47.42097656 294.71882813 47.13476562 295.9765625 C46.56382798 298.54127112 46.00623621 301.10899194 45.46289062 303.6796875 C43.70040077 311.29716068 41.80657104 317.31529694 35.45703125 322.23828125 C30.52003274 325.31368599 26.62585427 325.68179242 20.98828125 325.63671875 C20.18974731 325.63958893 19.39121338 325.64245911 18.56848145 325.64541626 C16.88760668 325.64744908 15.20670783 325.64197414 13.52587891 325.62939453 C10.96462714 325.6133289 8.40495315 325.62926903 5.84375 325.6484375 C4.20442363 325.64645493 2.56509823 325.64261096 0.92578125 325.63671875 C0.16624146 325.64279144 -0.59329834 325.64886414 -1.37585449 325.65512085 C-7.49301142 325.57488379 -11.51913975 323.9797155 -16.23046875 319.92578125 C-22.16381755 313.03026778 -23.29858591 304.47157488 -25.20507812 295.828125 C-25.57149414 294.26384766 -25.57149414 294.26384766 -25.9453125 292.66796875 C-26.15663818 291.72163574 -26.36796387 290.77530273 -26.58569336 289.80029297 C-28.1103121 285.71986729 -30.53743803 283.77721168 -34.3125 281.75390625 C-35.31667969 281.33625 -36.32085937 280.91859375 -37.35546875 280.48828125 C-38.35191406 280.0603125 -39.34835938 279.63234375 -40.375 279.19140625 C-44.89720096 277.83084271 -48.37330775 277.17836335 -52.76489258 279.32373047 C-55.24859434 280.82545606 -57.64835231 282.4108662 -60.04296875 284.05078125 C-75.61790183 294.49558234 -75.61790183 294.49558234 -84.54296875 293.23828125 C-94.0680582 290.34673624 -100.93266592 282.06302738 -107.85546875 275.23828125 C-108.55736328 274.56539063 -109.25925781 273.8925 -109.98242188 273.19921875 C-115.29850368 267.94901784 -118.84169782 263.03506354 -119.29296875 255.30078125 C-119.0619369 245.98249673 -112.52431019 237.78127772 -107.57421875 230.23828125 C-107.02765625 229.39265625 -106.48109375 228.54703125 -105.91796875 227.67578125 C-105.18707031 226.62197266 -105.18707031 226.62197266 -104.44140625 225.546875 C-102.35836589 220.19436694 -104.92162546 214.5087937 -107.04296875 209.48828125 C-107.48640625 208.3796875 -107.92984375 207.27109375 -108.38671875 206.12890625 C-111.46034427 202.00846624 -114.66997117 201.38615133 -119.54296875 200.23828125 C-120.35975098 200.04186035 -121.1765332 199.84543945 -122.01806641 199.64306641 C-125.39481059 198.85813017 -128.77465127 198.09725995 -132.16992188 197.39648438 C-139.39204905 195.73155297 -145.02176151 192.65411041 -149.48046875 186.61328125 C-151.59809023 181.87977442 -151.72986773 177.42648397 -151.78125 172.2890625 C-151.78932175 171.51700974 -151.79739349 170.74495697 -151.80570984 169.94950867 C-151.81951738 168.31637799 -151.83025438 166.68321886 -151.83813477 165.05004883 C-151.84962927 163.39273524 -151.87004103 161.73545794 -151.8996582 160.07836914 C-152.21585458 142.36960537 -152.21585458 142.36960537 -147.54296875 135.23828125 C-147.11886719 134.58037598 -146.69476563 133.9224707 -146.2578125 133.24462891 C-139.32193483 123.21715624 -123.74723133 121.42061313 -112.54296875 119.23828125 C-111.55296875 119.23828125 -110.56296875 119.23828125 -109.54296875 119.23828125 C-109.33800781 118.55121094 -109.13304687 117.86414063 -108.921875 117.15625 C-108.65246094 116.25519531 -108.38304687 115.35414062 -108.10546875 114.42578125 C-107.83863281 113.53246094 -107.57179687 112.63914062 -107.296875 111.71875 C-106.73909002 109.8835507 -106.149523 108.05794399 -105.54296875 106.23828125 C-106.37644853 104.24961558 -106.37644853 104.24961558 -107.74609375 102.21875 C-108.23207031 101.44337891 -108.71804687 100.66800781 -109.21875 99.86914062 C-109.99798828 98.65967773 -109.99798828 98.65967773 -110.79296875 97.42578125 C-122.11804094 79.56924159 -122.11804094 79.56924159 -120.0703125 68.73828125 C-117.09058155 59.09893303 -110.3067957 52.60808418 -103.35546875 45.61328125 C-102.44732422 44.67226563 -101.53917969 43.73125 -100.60351562 42.76171875 C-94.26496154 36.37325479 -88.94618816 32.09080227 -79.953125 30.671875 C-69.95772514 30.68353824 -64.14723644 33.15181512 -55.9921875 38.609375 C-55.37021484 39.02131104 -54.74824219 39.43324707 -54.10742188 39.85766602 C-52.87698216 40.68078665 -51.65757817 41.52070329 -50.45117188 42.37866211 C-47.82106887 44.17051371 -46.16063223 45.27239102 -42.92578125 45.09375 C-42.13945313 44.81144531 -41.353125 44.52914062 -40.54296875 44.23828125 C-39.73214844 43.98949219 -38.92132813 43.74070313 -38.0859375 43.484375 C-37.30863281 43.21753906 -36.53132813 42.95070312 -35.73046875 42.67578125 C-34.94027344 42.40636719 -34.15007812 42.13695312 -33.3359375 41.859375 C-32.74425781 41.65441406 -32.15257813 41.44945312 -31.54296875 41.23828125 C-31.445 40.53445312 -31.34703125 39.830625 -31.24609375 39.10546875 C-27.23327807 12.60704799 -27.23327807 12.60704799 -18.328125 5.4609375 C-12.12055178 1.18505643 -7.51958197 0.06836534 0 0 Z " fill="#2E6417" transform="translate(151.54296875,-0.23828125)"/>
<path d="M0 0 C2.48529769 1.96225705 4.82478278 3.88728278 7.0625 6.125 C9.80655565 6.33408522 12.45051549 6.41864445 15.1965332 6.41552734 C16.03735443 6.42224457 16.87817566 6.42896179 17.74447632 6.43588257 C20.53413751 6.454936 23.32355897 6.45879071 26.11328125 6.4609375 C28.04900716 6.4673613 29.98473209 6.47408934 31.92045593 6.48110962 C35.98337047 6.49310145 40.04619987 6.49678859 44.10913086 6.49560547 C49.31474368 6.49540239 54.51980984 6.52268415 59.72529316 6.55714989 C63.72560633 6.57939388 67.72578755 6.58344375 71.72615623 6.58238602 C73.64510161 6.58474653 75.56405037 6.59359535 77.48293495 6.60905075 C80.16910578 6.62865633 82.85409314 6.62289386 85.5402832 6.61083984 C86.33267899 6.62207886 87.12507477 6.63331787 87.94148254 6.64489746 C93.00233442 6.58721466 95.41805543 5.59185662 99.0625 2.125 C102.83087899 1.17471312 106.51398681 1.25255286 109.94140625 3.18359375 C112.78478262 5.49255239 114.85666043 7.40742062 115.30078125 11.11328125 C115.43050555 15.17570018 115.43682746 17.49666461 113.3125 21.0625 C110.60997968 23.53981029 108.56704442 25.04553463 104.84375 25.2421875 C104.0909375 25.16226563 103.338125 25.08234375 102.5625 25 C101.8096875 24.93554688 101.056875 24.87109375 100.28125 24.8046875 C98.0625 24.125 98.0625 24.125 96.4546814 22.10572815 C93.02628902 19.26701646 89.8139934 19.636029 85.56884766 19.75366211 C84.7129303 19.76099365 83.85701294 19.7683252 82.97515869 19.77587891 C81.11662958 19.79332866 79.2581661 19.81941462 77.39986038 19.85310173 C74.44655322 19.90284925 71.49455837 19.92175285 68.54086304 19.93128967 C60.14354946 19.96129569 51.7473626 20.02516138 43.35107422 20.16235352 C38.21071493 20.24413598 33.07237954 20.27125122 27.93140793 20.26507759 C25.98344261 20.27316399 24.03544246 20.30133116 22.0880928 20.3509655 C10.93570242 20.62842624 3.10541492 20.14817636 -5.37190819 12.36939144 C-6.37123187 11.41417023 -7.36826726 10.45654871 -8.36287308 9.49641609 C-21.98530022 -2.36799162 -42.58997685 -5.79441873 -59.9375 -4.875 C-79.35478117 -2.75851635 -99.21828012 5.8231974 -111.9375 21.125 C-126.20502192 39.0078216 -131.66482092 58.54507703 -129.9375 81.125 C-128.11825487 97.01090838 -121.26462584 111.08270466 -110.9375 123.125 C-110.01710938 124.21361328 -110.01710938 124.21361328 -109.078125 125.32421875 C-96.64180993 138.85004005 -77.41660768 147.43315101 -59.23046875 148.4453125 C-48.21558077 148.81190707 -38.39332597 147.5611337 -27.9375 144.125 C-26.89335937 143.78597656 -25.84921875 143.44695312 -24.7734375 143.09765625 C-5.02154742 135.77538565 8.76803378 120.24427908 17.55859375 101.55078125 C21.33213314 92.95495256 22.54732958 84.52111485 23.24145508 75.22949219 C23.73245465 69.56740493 23.73245465 69.56740493 25.34342289 67.40800381 C27.46422099 65.82518241 28.56498478 65.75107705 31.19273376 65.75318909 C32.03249252 65.74643158 32.87225128 65.73967407 33.73745728 65.73271179 C34.65546112 65.74043106 35.57346497 65.74815033 36.51928711 65.75610352 C37.48865707 65.75233704 38.45802704 65.74857056 39.45677185 65.74468994 C41.56351186 65.73824944 43.67028091 65.738595 45.77702141 65.74487495 C49.10964844 65.75396024 52.44170986 65.74379058 55.77430725 65.72825623 C65.24983813 65.68808337 74.7253259 65.68695637 84.20092773 65.68920898 C89.99461652 65.68926001 95.78800057 65.67012879 101.58160591 65.63987541 C104.86782875 65.62902026 108.15347734 65.64119891 111.43968201 65.65370178 C113.45189997 65.64479974 115.4641132 65.63472619 117.47631836 65.62329102 C118.39229797 65.63303452 119.30827759 65.64277802 120.25201416 65.65281677 C125.2973039 65.66353317 125.2973039 65.66353317 129.52735901 63.14073181 C130.03395554 62.47554031 130.54055206 61.81034882 131.0625 61.125 C135.57337416 59.55029484 139.12351234 59.69028349 143.4375 61.6875 C146.44592758 64.4810399 147.87144564 66.17963244 149.0625 70.125 C148.93453917 75.03016509 147.99493247 78.19256753 144.5 81.6875 C140.29871151 83.44440246 136.54677498 84.18562852 132.0625 83.125 C131.03434929 82.13545319 131.03434929 82.13545319 129.98542786 81.12591553 C125.9569777 78.36820515 122.82462224 78.55058376 118.04956055 78.57910156 C116.70247261 78.56359505 116.70247261 78.56359505 115.32817078 78.54777527 C112.36833711 78.51834564 109.40918723 78.51684805 106.44921875 78.515625 C104.39368892 78.50064348 102.33817113 78.48391639 100.28266907 78.46551514 C94.87893115 78.42182641 89.47535561 78.40183905 84.07147217 78.38677979 C78.55471183 78.36721429 73.03812701 78.3252436 67.52148438 78.28515625 C56.70187703 78.20983755 45.88230894 78.15955603 35.0625 78.125 C35.0715184 78.72574341 35.0805368 79.32648682 35.08982849 79.94543457 C35.0968428 80.74267944 35.10385712 81.53992432 35.11108398 82.36132812 C35.12010239 83.14769653 35.12912079 83.93406494 35.13841248 84.7442627 C34.45458661 106.19014131 20.03018369 125.71460192 5.25 139.9375 C-13.27082133 155.93408894 -37.84751231 162.57947015 -61.9375 161.125 C-85.93488441 158.6720316 -106.85513041 146.93877548 -122.65625 128.9375 C-134.14323078 114.77546891 -142.17894047 96.52006857 -142.9375 78.125 C-142.9890625 77.18914062 -143.040625 76.25328125 -143.09375 75.2890625 C-143.80764606 51.19507063 -135.07660424 29.10349249 -119.53125 10.81640625 C-88.44791121 -21.43723897 -36.17018638 -27.37971139 0 0 Z " fill="#2E6417" transform="translate(215.9375,93.875)"/>
<path d="M0 0 C7.8375 -0.0825 15.675 -0.165 23.75 -0.25 C27.42334473 -0.30462402 27.42334473 -0.30462402 31.17089844 -0.36035156 C46.13372373 -0.49264089 57.6785546 -0.34489142 68.93359375 10.62109375 C76.20979518 18.99766591 76.67003202 28.45976053 76.17480469 39.05566406 C75.44099124 47.21780137 70.88525179 53.58605174 65 59 C52.7959626 69.12170704 36.84233231 67.25887789 22 67 C22 76.24 22 85.48 22 95 C14.74 95 7.48 95 0 95 C0 63.65 0 32.3 0 0 Z M22 19 C22 28.24 22 37.48 22 47 C25.485625 47.0825 28.97125 47.165 32.5625 47.25 C33.64732666 47.28641602 34.73215332 47.32283203 35.84985352 47.36035156 C42.14469069 47.43215359 45.90545018 46.77982729 51 43 C53.74206083 39.1080427 54.54823533 35.63248082 54.3515625 30.95703125 C53.56677094 26.58835822 51.08119021 23.84741935 47.6875 21.1875 C41.95175526 18.65310116 35.7228164 18.8648138 29.5625 18.9375 C25.8190625 18.9684375 25.8190625 18.9684375 22 19 Z " fill="#457A00" transform="translate(392,94)"/>
<path d="M0 0 C0.99 1.98 0.99 1.98 2 4 C-1.3 8.95 -4.6 13.9 -8 19 C-12.11012184 17.62995939 -15.42666372 16.39080257 -19.1875 14.4375 C-23.92977285 11.98259071 -27.50063946 10.83041437 -32.875 10.75 C-33.90367187 10.72421875 -34.93234375 10.6984375 -35.9921875 10.671875 C-39.40946254 11.04466864 -41.24994686 11.9757239 -44 14 C-45.27589248 16.55178496 -45.07368516 17.71687037 -44.35546875 20.4765625 C-42.53899642 23.85823721 -40.96659333 24.25230008 -37.375 25.5 C-35.62896484 26.11875 -35.62896484 26.11875 -33.84765625 26.75 C-30.53860338 27.84418437 -27.20833393 28.86365102 -23.87304688 29.87451172 C-12.73533752 33.25541354 -3.00007806 36.21659292 3.02734375 46.8046875 C6.22848623 53.91505927 5.99979494 62.33342379 3.9375 69.75 C0.82213045 77.71149996 -4.78250372 82.60060693 -12.47265625 86.03515625 C-25.97099318 91.18830806 -41.60167526 90.19568429 -54.78515625 84.41796875 C-60.83035583 81.56879361 -65.98237517 78.39797839 -71 74 C-69.37387593 70.32810694 -67.12042006 67.38378333 -64.625 64.25 C-63.85414063 63.26515625 -63.08328125 62.2803125 -62.2890625 61.265625 C-60 59 -60 59 -56 59 C-53.703125 60.20703125 -53.703125 60.20703125 -51.25 61.8125 C-42.04428369 67.46419521 -33.91833214 69.55277512 -23 68 C-20.05434869 66.30868261 -20.05434869 66.30868261 -18 64 C-17.25 61 -17.25 61 -18 58 C-21.07964825 54.02847342 -24.63293417 52.85769683 -29.3125 51.5625 C-30.74634768 51.13626998 -32.17993546 50.70916478 -33.61328125 50.28125 C-35.07546 49.85395845 -36.53769893 49.42687276 -38 49 C-48.78060617 45.82670697 -58.47464332 42.78803502 -65 33 C-68.47490548 25.97437292 -68.21350434 16.5064603 -66.1953125 9.01171875 C-62.77491603 1.42787417 -56.58631796 -4.83988671 -48.8125 -7.9375 C-32.06944284 -12.6035979 -14.52602306 -9.5403965 0 0 Z " fill="#FF751F" transform="translate(857,102)"/>
<path d="M0 0 C9.09585344 11.28628345 10 21.50084654 10 36 C-6.5 36.33 -23 36.66 -40 37 C-36.4721378 44.18538617 -36.4721378 44.18538617 -29.8046875 47.79296875 C-23.25967159 49.48564528 -18.13442573 48.7903494 -12 46 C-8.97603299 44.00511714 -8.97603299 44.00511714 -7 42 C-3.52224821 43.51553404 -1.0442016 45.5773456 1.75 48.125 C2.54921875 48.84945312 3.3484375 49.57390625 4.171875 50.3203125 C4.77515625 50.87460938 5.3784375 51.42890625 6 52 C3.98724304 58.36643776 -0.40552918 60.79070725 -6 64 C-15.44625402 68.5322936 -28.08079763 68.68364026 -37.9375 65.375 C-48.83566756 60.66934444 -56.24270938 54.11464384 -60.9375 43 C-64.00118057 32.238822 -63.33818715 18.83350264 -58 9 C-51.98082121 -0.90475818 -44.08092505 -6.77444234 -32.81640625 -9.53515625 C-20.68110107 -11.47235176 -9.14301379 -7.94673161 0 0 Z M-38.3125 15 C-40.19776349 18.04238772 -40.19776349 18.04238772 -41 22 C-31.1 22 -21.2 22 -11 22 C-13.7605239 14.63860293 -15.15272377 11.42363811 -22 8 C-29.54866556 7.37094454 -33.50803541 8.76718107 -38.3125 15 Z " fill="#FF751F" transform="translate(945,124)"/>
<path d="M0 0 C10.0322062 10.47761071 9.97265625 22.03789363 9.97265625 36.1796875 C-6.52734375 36.1796875 -23.02734375 36.1796875 -40.02734375 36.1796875 C-36.46240866 44.14897192 -36.46240866 44.14897192 -30.02734375 48.1796875 C-21.81344404 50.41138855 -15.16389526 48.04799117 -7.96484375 43.9921875 C-6.99546875 43.3940625 -6.02609375 42.7959375 -5.02734375 42.1796875 C-4.49625 42.65019531 -3.96515625 43.12070313 -3.41796875 43.60546875 C-2.7115625 44.22808594 -2.00515625 44.85070312 -1.27734375 45.4921875 C-0.58125 46.10707031 0.11484375 46.72195312 0.83203125 47.35546875 C2.82380131 49.05283484 4.8616454 50.63446559 6.97265625 52.1796875 C3.88199785 59.10754014 -2.05306187 62.52462467 -8.81640625 65.41796875 C-18.75466722 68.84192792 -31.44724337 68.54926857 -41.02734375 64.1796875 C-51.27497858 58.74251266 -57.61390291 51.24523748 -61.02734375 40.1796875 C-63.91732657 28.61975624 -61.88911475 16.48348367 -55.83984375 6.3046875 C-49.5020894 -2.91024822 -41.01440803 -7.1899975 -30.27734375 -9.6953125 C-18.6997503 -10.60933304 -8.61629982 -7.73640793 0 0 Z M-36.02734375 12.1796875 C-38.46444204 15.3335794 -40.02734375 18.10249473 -40.02734375 22.1796875 C-30.45734375 22.1796875 -20.88734375 22.1796875 -11.02734375 22.1796875 C-12.02168042 17.20800415 -12.91304499 15.05151839 -16.02734375 11.1796875 C-22.84123346 6.63709436 -29.83239999 6.90478489 -36.02734375 12.1796875 Z " fill="#FF751F" transform="translate(1087.02734375,123.8203125)"/>
<path d="M0 0 C7.06796864 7.14178554 8.72412369 15.3731525 8.72268677 25.08055115 C8.7123642 26.15998489 8.70204163 27.23941864 8.69140625 28.3515625 C8.68857635 29.47365616 8.68574646 30.59574982 8.68283081 31.75184631 C8.6716815 35.31774793 8.64658626 38.88339369 8.62109375 42.44921875 C8.61105718 44.87434532 8.60193251 47.29947584 8.59375 49.72460938 C8.57175929 55.65374365 8.53726538 61.58268789 8.49609375 67.51171875 C1.56609375 67.51171875 -5.36390625 67.51171875 -12.50390625 67.51171875 C-12.83390625 65.86171875 -13.16390625 64.21171875 -13.50390625 62.51171875 C-14.49390625 63.29546875 -15.48390625 64.07921875 -16.50390625 64.88671875 C-23.15552596 69.59217317 -30.51318515 70.27331547 -38.50390625 69.51171875 C-45.49943272 68.26737249 -50.7605888 65.87602762 -55.50390625 60.51171875 C-59.4319884 54.88146767 -60.19536877 47.74776584 -59.1015625 41.046875 C-57.28203582 34.74851342 -54.04385196 29.59889104 -48.32421875 26.2265625 C-37.33656933 21.06569686 -25.04502319 21.38192432 -13.50390625 24.51171875 C-13.53039847 21.14829185 -13.53039847 21.14829185 -14.50390625 17.51171875 C-20.58711552 12.29622066 -26.9434385 12.82202397 -34.50927734 13.30517578 C-39.00550205 13.77075792 -43.25911101 15.00085943 -47.50390625 16.51171875 C-50.16428724 10.94910395 -51.46623574 5.57903927 -52.50390625 -0.48828125 C-37.53305359 -7.9375461 -14.10710378 -11.26538503 0 0 Z M-36.50390625 39.51171875 C-38.43254464 42.05401481 -38.51292916 43.29516893 -38.37890625 46.51171875 C-37.33598262 50.08745692 -36.56838192 51.39015867 -33.50390625 53.51171875 C-27.22914939 55.10699592 -22.29889526 54.44343563 -16.50390625 51.51171875 C-12.12182363 47.67739646 -11.87991178 44.05780033 -11.50390625 38.51171875 C-15.7450796 36.464537 -19.31986913 36.21327086 -24.00390625 36.19921875 C-25.9375 36.17408203 -25.9375 36.17408203 -27.91015625 36.1484375 C-31.66781358 36.52828764 -33.51772229 37.26381643 -36.50390625 39.51171875 Z " fill="#457A00" transform="translate(594.50390625,121.48828125)"/>
<path d="M0 0 C6.49840484 6.19615345 8.10421253 14.21831307 8.34057617 23.0222168 C8.3401095 25.1646095 8.32366205 27.30704587 8.29296875 29.44921875 C8.28872391 30.58784866 8.28447906 31.72647858 8.28010559 32.89961243 C8.26346525 36.49582719 8.22584042 40.09145787 8.1875 43.6875 C8.17243425 46.14256997 8.15874917 48.59764882 8.14648438 51.05273438 C8.11617626 57.03555609 8.05742531 63.01713306 8 69 C0.74 69 -6.52 69 -14 69 C-14.04898438 65.74898438 -14.09796875 62.49796875 -14.1484375 59.1484375 C-14.20248642 55.99100238 -14.2597786 52.83364155 -14.31738281 49.67626953 C-14.3556058 47.48622194 -14.39047022 45.296113 -14.421875 43.10595703 C-14.46767043 39.95322788 -14.52564149 36.80091862 -14.5859375 33.6484375 C-14.59748871 32.67321136 -14.60903992 31.69798523 -14.62094116 30.69320679 C-14.7262591 25.81415177 -14.87179672 21.49488864 -17 17 C-20.95375656 15.02312172 -24.62401409 14.45300176 -29 15 C-32.98549384 17.14603514 -35.33993287 18.78809266 -37 23 C-37.32295858 25.25842576 -37.32295858 25.25842576 -37.31884766 27.67675781 C-37.33871735 28.59741028 -37.35858704 29.51806274 -37.37905884 30.46661377 C-37.39638565 31.94493683 -37.39638565 31.94493683 -37.4140625 33.453125 C-37.43342865 34.46848328 -37.4527948 35.48384155 -37.4727478 36.52996826 C-37.53248099 39.76989365 -37.57890428 43.00985468 -37.625 46.25 C-37.66318551 48.44793208 -37.70223758 50.64584928 -37.7421875 52.84375 C-37.83980694 58.22908886 -37.9194261 63.61427113 -38 69 C-45.26 69 -52.52 69 -60 69 C-60 44.91 -60 20.82 -60 -4 C-52.74 -4 -45.48 -4 -38 -4 C-37.67 -1.69 -37.34 0.62 -37 3 C-36.32904297 2.38511719 -36.32904297 2.38511719 -35.64453125 1.7578125 C-25.77546274 -7.03807372 -10.64975905 -9.35100794 0 0 Z " fill="#457A00" transform="translate(689,120)"/>
<path d="M0 0 C3.68389564 2.43025055 6.92955022 5.24779033 10.0546875 8.35546875 C9.53362193 12.43094593 7.47002078 14.22197302 4.5546875 16.98046875 C1.38775587 19.85823899 1.38775587 19.85823899 -0.9453125 23.35546875 C-3.78701581 22.93447567 -5.0510573 22.26920326 -7.3203125 20.41796875 C-11.54518413 17.09842675 -15.14072928 16.11555615 -20.4453125 16.48046875 C-25.47852039 17.23333514 -29.0430108 18.84277118 -32.19921875 23.01171875 C-35.447074 28.53420434 -35.84920652 34.08299205 -34.9453125 40.35546875 C-33.26424138 45.74029015 -30.70631835 49.22322806 -25.9453125 52.35546875 C-21.99011475 54.33306762 -17.25446505 53.79044377 -12.9453125 53.35546875 C-9.00083668 52.01953874 -5.88969344 50.29984969 -2.9453125 47.35546875 C1.30927416 47.49420527 3.51065164 50.513642 6.3046875 53.41796875 C7.19671875 54.33707031 8.08875 55.25617188 9.0078125 56.203125 C9.68328125 56.91339844 10.35875 57.62367188 11.0546875 58.35546875 C8.12981379 64.94353381 2.33833121 68.50023315 -3.953125 71.59375 C-13.51418719 75.24945025 -26.24013437 74.59549989 -35.55078125 70.6171875 C-44.82235675 65.73183858 -52.29404642 58.29599696 -55.9453125 48.35546875 C-59.16429153 36.92374322 -58.12945192 26.04082035 -52.9453125 15.35546875 C-48.05621372 7.01602506 -40.78291788 1.46604192 -31.71484375 -1.8125 C-21.9386381 -3.97035679 -9.13588947 -4.50292061 0 0 Z " fill="#FF751F" transform="translate(1174.9453125,117.64453125)"/>
<path d="M0 0 C7.26 0 14.52 0 22 0 C22 6.27 22 12.54 22 19 C27.61 19 33.22 19 39 19 C39 24.94 39 30.88 39 37 C33.39 37 27.78 37 22 37 C22.11975983 41.80568165 22.24234761 46.61111265 22.37231445 51.41650391 C22.41567538 53.05187653 22.45734961 54.68729477 22.49731445 56.32275391 C22.55498912 58.67103841 22.61869129 61.01909304 22.68359375 63.3671875 C22.70030624 64.10057343 22.71701874 64.83395935 22.73423767 65.58956909 C22.78637962 69.42202308 22.78637962 69.42202308 24 73 C27.73778219 74.14555496 30.53680747 73.91832364 34.3125 73.0625 C35.859375 72.711875 37.40625 72.36125 39 72 C39 77.94 39 83.88 39 90 C30.01682848 93.84993065 21.5074666 95.48025698 11.95703125 92.82421875 C7.43976409 90.92173697 3.97477288 87.77231432 1.625 83.5 C0.15968123 77.63872491 -0.1363775 72.10513107 -0.09765625 66.1015625 C-0.0962413 65.26660248 -0.09482635 64.43164246 -0.09336853 63.57138062 C-0.08780174 60.92254958 -0.07525547 58.2738052 -0.0625 55.625 C-0.0574807 53.82161581 -0.05291855 52.01823029 -0.04882812 50.21484375 C-0.0378432 45.80986279 -0.02060163 41.40494606 0 37 C-2.64 37 -5.28 37 -8 37 C-8 31.06 -8 25.12 -8 19 C-5.36 19 -2.72 19 0 19 C0 12.73 0 6.46 0 0 Z " fill="#457A00" transform="translate(726,97)"/>
<path d="M0 0 C6.93 0 13.86 0 21 0 C21 6.27 21 12.54 21 19 C26.94 19 32.88 19 39 19 C39 24.94 39 30.88 39 37 C33.06 37 27.12 37 21 37 C21.0971647 41.32382916 21.20003208 45.64675033 21.31738281 49.9699707 C21.35555952 51.43928862 21.39043182 52.90869639 21.421875 54.37817383 C21.46777289 56.49593114 21.52572372 58.6130759 21.5859375 60.73046875 C21.63306885 62.63928833 21.63306885 62.63928833 21.68115234 64.58666992 C21.98467455 67.83593786 22.49089636 70.12107918 24 73 C28.5681393 75.07642696 33.36936279 73.1749378 38 72 C38 77.94 38 83.88 38 90 C28.32366202 94.14700199 20.07620655 95.74391883 10.0078125 91.97265625 C5.12701507 89.60822325 2.63911527 85.98482637 0.61312866 81.07223511 C-0.54913703 77.14404203 -0.36426921 73.19298588 -0.29296875 69.12890625 C-0.28872391 68.206577 -0.28447906 67.28424774 -0.28010559 66.33396912 C-0.26341364 63.40983965 -0.22577938 60.48641851 -0.1875 57.5625 C-0.17244089 55.57097355 -0.15875464 53.57943621 -0.14648438 51.58789062 C-0.11354122 46.72499062 -0.06182499 41.8626151 0 37 C-2.97 37 -5.94 37 -9 37 C-9 31.06 -9 25.12 -9 19 C-6.03 19 -3.06 19 0 19 C0 12.73 0 6.46 0 0 Z " fill="#FF751F" transform="translate(1211,97)"/>
<path d="M0 0 C7.26 0 14.52 0 22 0 C22 32.67 22 65.34 22 99 C14.74 99 7.48 99 0 99 C0 66.33 0 33.66 0 0 Z " fill="#FF751F" transform="translate(979,90)"/>
<path d="M0 0 C6.93 0 13.86 0 21 0 C21 32.67 21 65.34 21 99 C14.07 99 7.14 99 0 99 C0 66.33 0 33.66 0 0 Z " fill="#457A00" transform="translate(491,90)"/>
</svg>
